<?xml version="1.0" encoding="utf-8"?>
<!-- Generator: Adobe Illustrator 24.3.0, SVG Export Plug-In . SVG Version: 6.00 Build 0)  -->
<svg version="1.1" id="Layer_1" xmlns="http://www.w3.org/2000/svg" xmlns:xlink="http://www.w3.org/1999/xlink" x="0px" y="0px"
	 viewBox="0 0 220 40" style="enable-background:new 0 0 220 40;" xml:space="preserve">
<style type="text/css">
	.st0{fill:#22B573;}
	.st1{fill:#3DF598;}
</style>
<g>
	<path class="st1" d="M106.7,30.3c-0.2,0-0.4-0.1-0.4-0.3c-0.1-0.2,0-0.5,0.3-0.6c1.8-0.7,3.7-1.1,5.7-1.2c0.3,0,0.5,0.2,0.5,0.4
		c0,0.3-0.2,0.5-0.4,0.5c-1.9,0.1-3.7,0.5-5.4,1.1C106.8,30.3,106.8,30.3,106.7,30.3z"/>
	<path class="st1" d="M105.3,28.5c-0.2,0-0.4-0.1-0.4-0.3c-0.1-0.2,0-0.5,0.3-0.6c2.3-0.9,4.7-1.4,7.1-1.6c0.3,0,0.5,0.2,0.5,0.4
		c0,0.3-0.2,0.5-0.4,0.5c-2.4,0.1-4.7,0.6-6.8,1.5C105.4,28.5,105.4,28.5,105.3,28.5z"/>
	<path class="st1" d="M125.7,30.8c-0.1,0-0.2,0-0.3-0.1c-0.5-0.4-1.1-0.7-1.7-1.1c-0.2-0.1-0.3-0.4-0.2-0.6c0.1-0.2,0.4-0.3,0.6-0.2
		c0.6,0.3,1.2,0.7,1.8,1.1c0.2,0.1,0.3,0.4,0.1,0.6C126,30.8,125.9,30.8,125.7,30.8z"/>
	<path class="st1" d="M129,30.6c-0.1,0-0.2,0-0.3-0.1c-1.4-1.2-2.9-2.2-4.5-3.1c-0.2-0.1-0.3-0.4-0.2-0.6c0.1-0.2,0.4-0.3,0.6-0.2
		c1.7,0.9,3.3,2,4.7,3.2c0.2,0.2,0.2,0.5,0,0.7C129.2,30.5,129.1,30.6,129,30.6z"/>
	<path class="st1" d="M103.9,26.7c-0.2,0-0.3-0.1-0.4-0.3c-0.1-0.2,0-0.5,0.2-0.6c2.7-1.2,5.6-1.8,8.6-2c0.3,0,0.5,0.2,0.5,0.4
		c0,0.3-0.2,0.5-0.4,0.5c-2.9,0.1-5.6,0.8-8.2,1.9C104,26.7,104,26.7,103.9,26.7z"/>
	<path class="st1" d="M129.4,28c-0.1,0-0.2,0-0.3-0.1c-1.4-1.1-2.9-2-4.5-2.8c-0.2-0.1-0.3-0.4-0.2-0.6c0.1-0.2,0.4-0.3,0.6-0.2
		c1.7,0.8,3.2,1.8,4.7,2.9c0.2,0.2,0.2,0.4,0.1,0.7C129.6,28,129.5,28,129.4,28z"/>
	<path class="st1" d="M102.5,24.9c-0.2,0-0.3-0.1-0.4-0.3c-0.1-0.2,0-0.5,0.2-0.6c3.1-1.5,6.5-2.3,10-2.4c0.3,0,0.5,0.2,0.5,0.4
		c0,0.3-0.2,0.5-0.4,0.5c-3.4,0.1-6.6,0.9-9.6,2.3C102.6,24.9,102.6,24.9,102.5,24.9z"/>
	<path class="st1" d="M94.3,30.8c-0.1,0-0.2,0-0.3-0.1c-0.2-0.2-0.2-0.5,0-0.7c1-1.1,2.2-2.2,3.4-3.1c0.2-0.2,0.5-0.1,0.6,0.1
		c0.2,0.2,0.1,0.5-0.1,0.6c-1.2,0.9-2.3,1.9-3.3,3C94.6,30.8,94.4,30.8,94.3,30.8z"/>
	<path class="st1" d="M101.1,23.1c-0.2,0-0.3-0.1-0.4-0.3c-0.1-0.2,0-0.5,0.2-0.6c1.5-0.7,3.1-1.3,4.7-1.8c0.2-0.1,0.5,0.1,0.6,0.3
		c0.1,0.2-0.1,0.5-0.3,0.6c-1.6,0.4-3.1,1-4.6,1.7C101.2,23.1,101.2,23.1,101.1,23.1z"/>
	<path class="st1" d="M129.7,25.5c-0.1,0-0.2,0-0.3-0.1c-1.4-1-2.9-1.9-4.5-2.6c-0.2-0.1-0.3-0.4-0.2-0.6c0.1-0.2,0.4-0.3,0.6-0.2
		c1.6,0.8,3.2,1.7,4.6,2.7c0.2,0.1,0.3,0.4,0.1,0.6C130,25.5,129.9,25.5,129.7,25.5z"/>
	<path class="st1" d="M107.1,21c-0.2,0-0.4-0.1-0.5-0.4c-0.1-0.2,0.1-0.5,0.3-0.6c1.7-0.4,3.5-0.6,5.2-0.7c0.3,0,0.5,0.2,0.5,0.4
		c0,0.3-0.2,0.5-0.4,0.5c-1.7,0.1-3.4,0.3-5.1,0.7C107.2,21,107.2,21,107.1,21z"/>
	<path class="st1" d="M92.5,29.5c-0.1,0-0.2,0-0.3-0.1c-0.2-0.2-0.2-0.5,0-0.7c1.6-1.7,3.3-3.2,5.2-4.5c0.2-0.1,0.5-0.1,0.6,0.1
		c0.1,0.2,0.1,0.5-0.1,0.6c-1.9,1.3-3.6,2.7-5.1,4.4C92.8,29.5,92.6,29.5,92.5,29.5z"/>
	<path class="st1" d="M107.1,18.7c-0.2,0-0.4-0.2-0.5-0.4c-0.1-0.3,0.1-0.5,0.4-0.5c1.7-0.4,3.5-0.6,5.2-0.6c0.3,0,0.5,0.2,0.5,0.4
		c0,0.3-0.2,0.5-0.4,0.5C110.6,18.1,108.9,18.3,107.1,18.7C107.2,18.7,107.2,18.7,107.1,18.7z"/>
	<path class="st1" d="M88.6,30.8c-0.1,0-0.2,0-0.3-0.1c-0.2-0.1-0.3-0.4-0.1-0.6c0.3-0.5,0.7-1,1.1-1.4c0.2-0.2,0.5-0.2,0.7-0.1
		c0.2,0.2,0.2,0.5,0.1,0.7c-0.4,0.5-0.7,0.9-1.1,1.4C88.9,30.8,88.8,30.8,88.6,30.8z"/>
	<path class="st1" d="M137.6,30.1c-0.1,0-0.3-0.1-0.4-0.2c-1.3-1.8-2.9-3.4-4.5-4.8c-0.2-0.2-0.2-0.5-0.1-0.7
		c0.2-0.2,0.5-0.2,0.7-0.1c1.7,1.5,3.3,3.1,4.7,4.9c0.2,0.2,0.1,0.5-0.1,0.6C137.7,30.1,137.7,30.1,137.6,30.1z"/>
	<path class="st1" d="M99.7,21.3c-0.2,0-0.3-0.1-0.4-0.3c-0.1-0.2,0-0.5,0.2-0.6c1.5-0.8,3-1.4,4.6-1.9c0.2-0.1,0.5,0.1,0.6,0.3
		c0.1,0.2-0.1,0.5-0.3,0.6c-1.5,0.5-3,1.1-4.5,1.8C99.8,21.3,99.8,21.3,99.7,21.3z"/>
	<path class="st1" d="M130.1,23.1c-0.1,0-0.2,0-0.3-0.1c-1.4-0.9-2.9-1.8-4.5-2.4c-0.2-0.1-0.3-0.4-0.2-0.6c0.1-0.2,0.4-0.3,0.6-0.2
		c1.6,0.7,3.2,1.5,4.6,2.5c0.2,0.1,0.3,0.4,0.1,0.6C130.4,23,130.2,23.1,130.1,23.1z"/>
	<path class="st1" d="M92.5,26.4c-0.1,0-0.2,0-0.3-0.1c-0.2-0.2-0.2-0.5,0-0.7c1.6-1.5,3.4-2.9,5.2-4c0.2-0.1,0.5-0.1,0.6,0.2
		c0.1,0.2,0.1,0.5-0.2,0.6c-1.8,1.1-3.5,2.4-5.1,3.9C92.7,26.3,92.6,26.4,92.5,26.4z"/>
	<path class="st1" d="M98.3,19.5c-0.2,0-0.3-0.1-0.4-0.2c-0.1-0.2,0-0.5,0.2-0.6c1.5-0.8,3-1.4,4.6-2c0.2-0.1,0.5,0,0.6,0.3
		c0.1,0.2,0,0.5-0.3,0.6c-1.5,0.5-3,1.2-4.4,1.9C98.5,19.5,98.4,19.5,98.3,19.5z"/>
	<path class="st1" d="M92.5,23.4c-0.1,0-0.3-0.1-0.4-0.2C92,23,92,22.7,92.2,22.6c1.6-1.4,3.4-2.6,5.2-3.6c0.2-0.1,0.5,0,0.6,0.2
		c0.1,0.2,0,0.5-0.2,0.6c-1.8,1-3.5,2.2-5.1,3.5C92.7,23.4,92.6,23.4,92.5,23.4z"/>
	<path class="st1" d="M138.5,27.7c-0.1,0-0.3-0.1-0.4-0.2c-2-2.5-4.4-4.6-7.1-6.4c-0.2-0.1-0.3-0.4-0.1-0.6c0.1-0.2,0.4-0.3,0.6-0.1
		c2.7,1.8,5.2,4,7.3,6.6c0.2,0.2,0.1,0.5-0.1,0.7C138.7,27.7,138.6,27.7,138.5,27.7z"/>
	<path class="st1" d="M107.1,16.4c-0.2,0-0.4-0.2-0.5-0.4c0-0.3,0.1-0.5,0.4-0.5c1.7-0.3,3.5-0.5,5.2-0.6c0.3,0,0.5,0.2,0.5,0.4
		c0,0.3-0.2,0.5-0.4,0.5C110.6,15.9,108.9,16.1,107.1,16.4C107.2,16.4,107.2,16.4,107.1,16.4z"/>
	<path class="st1" d="M130.4,20.7c-0.1,0-0.2,0-0.2-0.1c-1.4-0.9-2.9-1.6-4.5-2.3c-0.2-0.1-0.3-0.4-0.2-0.6c0.1-0.2,0.4-0.3,0.6-0.2
		c1.6,0.7,3.1,1.5,4.6,2.4c0.2,0.1,0.3,0.4,0.2,0.6C130.7,20.6,130.6,20.7,130.4,20.7z"/>
	<path class="st1" d="M85.9,30.8c-0.1,0-0.2,0-0.2-0.1c-0.2-0.1-0.3-0.4-0.1-0.6c0.9-1.3,1.8-2.6,2.9-3.9c0.2-0.2,0.5-0.2,0.7,0
		c0.2,0.2,0.2,0.5,0,0.7c-1,1.2-2,2.4-2.8,3.8C86.2,30.8,86.1,30.8,85.9,30.8z"/>
	<path class="st1" d="M84.2,29.4c-0.1,0-0.2,0-0.3-0.1c-0.2-0.1-0.3-0.4-0.1-0.6c1.1-1.7,2.4-3.3,3.8-4.8c0.2-0.2,0.5-0.2,0.7,0
		c0.2,0.2,0.2,0.5,0,0.7c-1.3,1.4-2.6,3-3.7,4.7C84.5,29.3,84.4,29.4,84.2,29.4z"/>
	<path class="st1" d="M107.1,14.2c-0.2,0-0.4-0.2-0.5-0.4c0-0.3,0.1-0.5,0.4-0.5c1.7-0.3,3.5-0.5,5.2-0.5c0,0,0,0,0,0
		c0.2,0,0.5,0.2,0.5,0.4c0,0.3-0.2,0.5-0.4,0.5C110.6,13.7,108.9,13.9,107.1,14.2C107.2,14.2,107.2,14.2,107.1,14.2z"/>
	<path class="st1" d="M139.5,25.5c-0.1,0-0.3-0.1-0.3-0.2c-3.5-4-8-7.2-13-9.2c-0.2-0.1-0.4-0.4-0.3-0.6c0.1-0.2,0.4-0.4,0.6-0.3
		c5.1,2,9.7,5.3,13.4,9.5c0.2,0.2,0.2,0.5,0,0.7C139.7,25.4,139.6,25.5,139.5,25.5z"/>
	<path class="st1" d="M92.5,20.6c-0.1,0-0.3-0.1-0.4-0.2c-0.2-0.2-0.1-0.5,0.1-0.6c2.7-2.1,5.8-3.7,9-4.9c0.2-0.1,0.5,0,0.6,0.3
		c0.1,0.2,0,0.5-0.3,0.6c-3.1,1.1-6.1,2.7-8.7,4.7C92.7,20.5,92.6,20.6,92.5,20.6z"/>
	<path class="st1" d="M145.9,30.8c-0.2,0-0.3-0.1-0.4-0.2c-0.9-1.6-1.9-3.2-3-4.7c-0.2-0.2-0.1-0.5,0.1-0.6c0.2-0.2,0.5-0.1,0.6,0.1
		c1.1,1.5,2.2,3.1,3.1,4.8c0.1,0.2,0,0.5-0.2,0.6C146.1,30.8,146,30.8,145.9,30.8z"/>
	<path class="st1" d="M140.4,23.2c-0.1,0-0.2,0-0.3-0.1c-1.1-1.2-2.2-2.3-3.4-3.3c-0.2-0.2-0.2-0.5-0.1-0.7c0.2-0.2,0.5-0.2,0.7-0.1
		c1.2,1,2.4,2.1,3.5,3.3c0.2,0.2,0.2,0.5,0,0.7C140.7,23.2,140.6,23.2,140.4,23.2z"/>
	<path class="st1" d="M92.5,17.8c-0.1,0-0.3-0.1-0.4-0.2C92,17.4,92,17.1,92.3,17c2.3-1.6,4.9-2.9,7.5-4c0.2-0.1,0.5,0,0.6,0.3
		c0.1,0.2,0,0.5-0.3,0.6c-2.6,1-5,2.3-7.3,3.9C92.7,17.8,92.6,17.8,92.5,17.8z"/>
	<path class="st1" d="M135.1,18.5c-0.1,0-0.2,0-0.3-0.1c-2.6-1.9-5.4-3.4-8.3-4.5c-0.2-0.1-0.4-0.4-0.3-0.6c0.1-0.2,0.4-0.4,0.6-0.3
		c3,1.2,5.9,2.7,8.5,4.6c0.2,0.2,0.3,0.4,0.1,0.6C135.4,18.4,135.2,18.5,135.1,18.5z"/>
	<path class="st1" d="M82.9,27.4c-0.1,0-0.2,0-0.3-0.1c-0.2-0.1-0.3-0.4-0.1-0.6c1.2-1.8,2.7-3.5,4.2-5.1c0.2-0.2,0.5-0.2,0.7,0
		c0.2,0.2,0.2,0.5,0,0.7c-1.5,1.5-2.9,3.2-4.1,4.9C83.2,27.3,83.1,27.4,82.9,27.4z"/>
	<path class="st1" d="M107.1,11.9c-0.2,0-0.4-0.2-0.5-0.4c0-0.3,0.1-0.5,0.4-0.5c1.7-0.3,3.5-0.5,5.2-0.5c0.3,0,0.5,0.2,0.5,0.4
		c0,0.3-0.2,0.5-0.5,0.5C110.6,11.5,108.9,11.6,107.1,11.9C107.2,11.9,107.2,11.9,107.1,11.9z"/>
	<path class="st1" d="M133.7,14.9c-0.1,0-0.2,0-0.2-0.1c-2.1-1.3-4.3-2.3-6.6-3.2c-0.2-0.1-0.4-0.4-0.3-0.6c0.1-0.2,0.4-0.4,0.6-0.3
		c2.3,0.9,4.6,2,6.8,3.3c0.2,0.1,0.3,0.4,0.2,0.6C134,14.8,133.9,14.9,133.7,14.9z"/>
	<path class="st1" d="M141.4,21c-0.1,0-0.2,0-0.3-0.1c-1.1-1.1-2.3-2.2-3.5-3.2c-0.2-0.2-0.2-0.5-0.1-0.7c0.2-0.2,0.5-0.2,0.7-0.1
		c1.3,1,2.5,2.1,3.6,3.3c0.2,0.2,0.2,0.5,0,0.7C141.6,20.9,141.5,21,141.4,21z"/>
	<path class="st1" d="M148.4,30.8c-0.2,0-0.3-0.1-0.4-0.3c-1.6-3.2-3.6-6.1-6-8.7c-0.2-0.2-0.2-0.5,0-0.7c0.2-0.2,0.5-0.2,0.7,0
		c2.4,2.7,4.5,5.7,6.1,8.9c0.1,0.2,0,0.5-0.2,0.6C148.6,30.8,148.5,30.8,148.4,30.8z"/>
	<path class="st1" d="M80.3,27.4c-0.1,0-0.2,0-0.2-0.1c-0.2-0.1-0.3-0.4-0.1-0.6c1.7-2.7,3.7-5.1,6-7.3c0.2-0.2,0.5-0.2,0.7,0
		c0.2,0.2,0.2,0.5,0,0.7c-2.2,2.1-4.2,4.6-5.9,7.2C80.6,27.3,80.4,27.4,80.3,27.4z"/>
	<path class="st1" d="M92.5,15.2c-0.2,0-0.3-0.1-0.4-0.2c-0.1-0.2-0.1-0.5,0.1-0.6c1.9-1.2,4-2.3,6.1-3.1c0.2-0.1,0.5,0,0.6,0.3
		c0.1,0.2,0,0.5-0.3,0.6c-2.1,0.8-4,1.9-5.9,3C92.7,15.2,92.6,15.2,92.5,15.2z"/>
	<path class="st1" d="M81.5,21.9c-0.1,0-0.2,0-0.3-0.1c-0.2-0.2-0.2-0.5-0.1-0.7c1.2-1.4,2.5-2.8,3.9-4.1c0.2-0.2,0.5-0.2,0.7,0
		c0.2,0.2,0.2,0.5,0,0.7c-1.3,1.2-2.6,2.6-3.8,4C81.8,21.8,81.7,21.9,81.5,21.9z"/>
	<path class="st1" d="M92.5,12.6c-0.2,0-0.3-0.1-0.4-0.2c-0.1-0.2-0.1-0.5,0.2-0.6c1-0.6,2-1.1,3-1.6c0.2-0.1,0.5,0,0.6,0.2
		c0.1,0.2,0,0.5-0.2,0.6c-1,0.5-2,1-2.9,1.6C92.7,12.6,92.6,12.6,92.5,12.6z"/>
	<path class="st1" d="M132.5,11.7c-0.1,0-0.1,0-0.2-0.1c-0.5-0.2-0.9-0.4-1.3-0.6c-0.2-0.1-0.3-0.4-0.2-0.6c0.1-0.2,0.4-0.3,0.6-0.2
		c0.4,0.2,0.8,0.4,1.3,0.6c0.2,0.1,0.3,0.4,0.2,0.6C132.8,11.6,132.7,11.7,132.5,11.7z"/>
	<path class="st1" d="M77.7,27.4c-0.1,0-0.2,0-0.2-0.1c-0.2-0.1-0.3-0.4-0.2-0.6c0.8-1.4,1.7-2.7,2.7-4c0.2-0.2,0.4-0.2,0.6-0.1
		c0.2,0.2,0.2,0.4,0.1,0.6c-0.9,1.2-1.8,2.5-2.6,3.9C78,27.3,77.8,27.4,77.7,27.4z"/>
	<path class="st1" d="M147.8,25.4c-0.1,0-0.3-0.1-0.4-0.2c-2.5-3.7-5.5-7-9.1-9.7c-0.2-0.2-0.2-0.4-0.1-0.6c0.2-0.2,0.4-0.2,0.6-0.1
		c3.6,2.8,6.7,6.1,9.3,9.9c0.1,0.2,0.1,0.5-0.1,0.6C148,25.4,147.9,25.4,147.8,25.4z"/>
	<path class="st1" d="M80.7,19.4c-0.1,0-0.2,0-0.3-0.1c-0.2-0.2-0.2-0.5,0-0.7c1.2-1.4,2.5-2.6,3.9-3.8c0.2-0.2,0.5-0.2,0.7,0
		c0.2,0.2,0.2,0.5,0,0.7c-1.3,1.2-2.6,2.4-3.8,3.8C81,19.4,80.8,19.4,80.7,19.4z"/>
	<path class="st1" d="M73.4,30.8c-0.1,0-0.1,0-0.2,0c-0.2-0.1-0.3-0.4-0.2-0.6c1.2-2.8,2.8-5.6,4.6-8.1c0.2-0.2,0.4-0.3,0.6-0.1
		c0.2,0.1,0.3,0.4,0.1,0.6c-1.8,2.5-3.3,5.1-4.5,7.9C73.7,30.7,73.6,30.8,73.4,30.8z"/>
	<path class="st1" d="M147.1,20.7c-0.1,0-0.3-0.1-0.4-0.2c-2.2-2.7-4.7-5.1-7.5-7.2c-0.2-0.2-0.2-0.4-0.1-0.6
		c0.2-0.2,0.4-0.2,0.6-0.1c2.8,2.1,5.4,4.6,7.7,7.3c0.2,0.2,0.1,0.5-0.1,0.7C147.3,20.7,147.2,20.7,147.1,20.7z"/>
	<path class="st1" d="M71,30.8c-0.1,0-0.1,0-0.2,0c-0.2-0.1-0.3-0.4-0.3-0.6c2.8-6.7,7.2-12.8,12.8-17.6c0.2-0.2,0.5-0.1,0.7,0.1
		c0.2,0.2,0.1,0.5-0.1,0.7c-5.5,4.7-9.8,10.6-12.6,17.2C71.3,30.7,71.2,30.8,71,30.8z"/>
	<path class="st1" d="M155.1,29.4c-0.2,0-0.3-0.1-0.4-0.3c-1.1-2.4-2.4-4.8-4-7c-0.1-0.2-0.1-0.5,0.1-0.6c0.2-0.1,0.5-0.1,0.6,0.1
		c1.6,2.2,2.9,4.6,4,7.1c0.1,0.2,0,0.5-0.2,0.6C155.2,29.4,155.2,29.4,155.1,29.4z"/>
	<path class="st1" d="M146.5,16.7c-0.1,0-0.2,0-0.3-0.1c-1.9-1.9-3.9-3.7-6.1-5.3c-0.2-0.2-0.3-0.4-0.1-0.6c0.2-0.2,0.4-0.3,0.6-0.1
		c2.2,1.6,4.3,3.4,6.2,5.4c0.2,0.2,0.2,0.5,0,0.7C146.7,16.7,146.6,16.7,146.5,16.7z"/>
	<path class="st1" d="M72.6,22.9c-0.1,0-0.2,0-0.2-0.1c-0.2-0.1-0.3-0.4-0.1-0.6c2.8-4.5,6.3-8.5,10.4-11.8c0.2-0.2,0.5-0.1,0.7,0.1
		c0.2,0.2,0.1,0.5-0.1,0.7c-4,3.3-7.4,7.2-10.2,11.6C72.9,22.9,72.7,22.9,72.6,22.9z"/>
	<path class="st1" d="M158.2,31c-0.2,0-0.4-0.1-0.4-0.3c-1.7-4.3-4-8.4-6.9-12.1c-0.2-0.2-0.1-0.5,0.1-0.7c0.2-0.2,0.5-0.1,0.6,0.1
		c2.9,3.7,5.3,7.9,7,12.3c0.1,0.2,0,0.5-0.3,0.6C158.3,31,158.3,31,158.2,31z"/>
	<path class="st1" d="M146,13.1c-0.1,0-0.2,0-0.3-0.1c-0.8-0.7-1.5-1.4-2.3-2c-0.2-0.2-0.2-0.5-0.1-0.7c0.2-0.2,0.5-0.2,0.7-0.1
		c0.8,0.7,1.6,1.4,2.4,2.1c0.2,0.2,0.2,0.5,0,0.7C146.2,13,146.1,13.1,146,13.1z"/>
	<path class="st1" d="M156.7,22.8c-0.2,0-0.3-0.1-0.4-0.2c-1.3-2.3-2.9-4.4-4.5-6.4c-0.2-0.2-0.1-0.5,0.1-0.7
		c0.2-0.2,0.5-0.1,0.7,0.1c1.7,2,3.2,4.3,4.6,6.6c0.1,0.2,0.1,0.5-0.2,0.6C156.8,22.8,156.8,22.8,156.7,22.8z"/>
	<path class="st1" d="M75.5,15.3c-0.1,0-0.2,0-0.3-0.1c-0.2-0.2-0.2-0.5,0-0.7c1.3-1.5,2.7-2.9,4.2-4.3c0.2-0.2,0.5-0.2,0.7,0
		c0.2,0.2,0.2,0.5,0,0.7c-1.5,1.3-2.9,2.7-4.2,4.2C75.8,15.2,75.6,15.3,75.5,15.3z"/>
	<path class="st1" d="M160.7,31.5c-0.2,0-0.4-0.1-0.4-0.3c-0.9-2.4-1.9-4.7-3.1-7c-0.1-0.2,0-0.5,0.2-0.6c0.2-0.1,0.5,0,0.6,0.2
		c1.2,2.3,2.3,4.6,3.2,7.1c0.1,0.2,0,0.5-0.3,0.6C160.9,31.5,160.8,31.5,160.7,31.5z"/>
	<path class="st1" d="M66.2,30.8c-0.1,0-0.1,0-0.2,0c-0.2-0.1-0.4-0.4-0.3-0.6c0.5-1.4,1.1-2.7,1.7-4c0.1-0.2,0.4-0.3,0.6-0.2
		c0.2,0.1,0.3,0.4,0.2,0.6c-0.6,1.3-1.2,2.6-1.7,4C66.6,30.7,66.4,30.8,66.2,30.8z"/>
	<path class="st1" d="M156.8,18.9c-0.1,0-0.3-0.1-0.4-0.2c-1.1-1.5-2.2-3.1-3.4-4.5c-0.2-0.2-0.1-0.5,0.1-0.7
		c0.2-0.2,0.5-0.1,0.7,0.1c1.2,1.5,2.4,3,3.5,4.6c0.1,0.2,0.1,0.5-0.1,0.6C157,18.8,156.9,18.9,156.8,18.9z"/>
	<path class="st1" d="M63.9,30.8c-0.1,0-0.1,0-0.2,0c-0.2-0.1-0.4-0.4-0.3-0.6c0.5-1.5,1.1-2.9,1.8-4.3c0.1-0.2,0.4-0.3,0.6-0.2
		c0.2,0.1,0.3,0.4,0.2,0.6c-0.6,1.4-1.2,2.8-1.7,4.3C64.2,30.7,64,30.8,63.9,30.8z"/>
	<path class="st1" d="M163.1,31.5c-0.2,0-0.4-0.1-0.4-0.3c-0.6-1.7-1.2-3.3-2-5c-0.1-0.2,0-0.5,0.2-0.6c0.2-0.1,0.5,0,0.6,0.2
		c0.8,1.7,1.4,3.4,2,5.1c0.1,0.2,0,0.5-0.3,0.6C163.2,31.5,163.2,31.5,163.1,31.5z"/>
	<path class="st1" d="M165.3,31.1c-0.2,0-0.4-0.1-0.4-0.3c-0.5-1.6-1.1-3.2-1.8-4.7c-0.1-0.2,0-0.5,0.2-0.6c0.2-0.1,0.5,0,0.6,0.2
		c0.7,1.6,1.3,3.2,1.9,4.8c0.1,0.2-0.1,0.5-0.3,0.6C165.4,31.1,165.4,31.1,165.3,31.1z"/>
	<path class="st1" d="M61.5,30.8c0,0-0.1,0-0.1,0c-0.2-0.1-0.4-0.3-0.3-0.6c0.5-1.4,1.1-2.9,1.7-4.3c0.1-0.2,0.4-0.3,0.6-0.2
		c0.2,0.1,0.3,0.4,0.2,0.6c-0.6,1.4-1.2,2.9-1.7,4.3C61.9,30.7,61.7,30.8,61.5,30.8z"/>
	<path class="st1" d="M158.1,16.9c-0.1,0-0.3-0.1-0.4-0.2c-1-1.4-2.1-2.8-3.2-4.1c-0.2-0.2-0.1-0.5,0-0.7s0.5-0.1,0.7,0
		c1.2,1.3,2.3,2.8,3.3,4.2c0.1,0.2,0.1,0.5-0.1,0.6C158.3,16.9,158.2,16.9,158.1,16.9z"/>
	<path class="st1" d="M59.2,30.8c0,0-0.1,0-0.1,0c-0.2-0.1-0.4-0.3-0.3-0.6c0.5-1.5,1-2.9,1.6-4.3c0.1-0.2,0.4-0.3,0.6-0.2
		c0.2,0.1,0.3,0.4,0.2,0.6c-0.6,1.4-1.1,2.8-1.6,4.3C59.5,30.7,59.4,30.8,59.2,30.8z"/>
	<path class="st1" d="M160,15.8c-0.1,0-0.3-0.1-0.4-0.2c-1-1.4-2.1-2.8-3.2-4.2c-0.2-0.2-0.1-0.5,0.1-0.7c0.2-0.2,0.5-0.1,0.7,0.1
		c1.2,1.4,2.3,2.8,3.3,4.3c0.1,0.2,0.1,0.5-0.1,0.6C160.2,15.7,160.1,15.8,160,15.8z"/>
	<path class="st1" d="M167.4,30.3c-0.2,0-0.4-0.1-0.4-0.3c-0.6-1.6-1.2-3.3-1.9-4.9c-0.1-0.2,0-0.5,0.2-0.6c0.2-0.1,0.5,0,0.6,0.2
		c0.7,1.6,1.4,3.3,1.9,5c0.1,0.2,0,0.5-0.3,0.6C167.5,30.3,167.4,30.3,167.4,30.3z"/>
	<path class="st1" d="M162.5,15.4c-0.1,0-0.3-0.1-0.4-0.2c-1.1-1.6-2.2-3.2-3.5-4.7c-0.2-0.2-0.1-0.5,0.1-0.7
		c0.2-0.2,0.5-0.1,0.7,0.1c1.2,1.5,2.4,3.1,3.5,4.7c0.1,0.2,0.1,0.5-0.1,0.6C162.7,15.4,162.6,15.4,162.5,15.4z"/>
	<path class="st1" d="M56.8,30.8c0,0-0.1,0-0.1,0c-0.2-0.1-0.4-0.3-0.3-0.6c2.3-7.3,5.9-14,10.7-20c0.2-0.2,0.5-0.2,0.7-0.1
		c0.2,0.2,0.2,0.5,0.1,0.7c-4.8,5.9-8.3,12.5-10.6,19.7C57.2,30.7,57,30.8,56.8,30.8z"/>
	<path class="st1" d="M169.3,29c-0.2,0-0.4-0.1-0.4-0.3c-0.6-1.9-1.4-3.7-2.2-5.5c-0.1-0.2,0-0.5,0.2-0.6c0.2-0.1,0.5,0,0.6,0.2
		c0.8,1.8,1.6,3.7,2.3,5.6c0.1,0.2,0,0.5-0.3,0.6C169.4,29,169.3,29,169.3,29z"/>
	<path class="st1" d="M166.5,17.6c-0.2,0-0.3-0.1-0.4-0.2c-1.4-2.5-3.1-4.9-4.8-7.1c-0.2-0.2-0.1-0.5,0.1-0.7
		c0.2-0.2,0.5-0.1,0.7,0.1c1.8,2.3,3.4,4.7,4.9,7.2c0.1,0.2,0.1,0.5-0.2,0.6C166.6,17.6,166.5,17.6,166.5,17.6z"/>
	<path class="st1" d="M54.5,30.8c0,0-0.1,0-0.1,0c-0.2-0.1-0.4-0.3-0.3-0.6c2.2-7.2,5.6-14,10.2-20c0.2-0.2,0.4-0.2,0.6-0.1
		c0.2,0.2,0.2,0.4,0.1,0.6c-4.6,5.9-7.9,12.5-10.1,19.7C54.9,30.7,54.7,30.8,54.5,30.8z"/>
	<path class="st1" d="M171,27.2c-0.2,0-0.4-0.1-0.4-0.3c-1-2.8-2.2-5.5-3.7-8.1c-0.1-0.2,0-0.5,0.2-0.6c0.2-0.1,0.5,0,0.6,0.2
		c1.4,2.6,2.7,5.4,3.7,8.2c0.1,0.2,0,0.5-0.3,0.6C171.1,27.2,171,27.2,171,27.2z"/>
	<path class="st1" d="M52.2,30.8c0,0-0.1,0-0.1,0c-0.2-0.1-0.4-0.3-0.3-0.6c0.4-1.5,1-3.1,1.5-4.6c0.1-0.2,0.4-0.4,0.6-0.3
		c0.2,0.1,0.4,0.4,0.3,0.6c-0.6,1.5-1.1,3-1.5,4.6C52.6,30.7,52.4,30.8,52.2,30.8z"/>
	<path class="st1" d="M172.4,24.6c-0.2,0-0.4-0.1-0.4-0.3c-2-4.9-4.6-9.6-7.7-13.8c-0.2-0.2-0.1-0.5,0.1-0.6
		c0.2-0.2,0.5-0.1,0.6,0.1c3.2,4.3,5.8,9.1,7.9,14c0.1,0.2,0,0.5-0.3,0.6C172.5,24.6,172.4,24.6,172.4,24.6z"/>
	<path class="st1" d="M59,15.3c-0.1,0-0.2,0-0.2-0.1c-0.2-0.1-0.3-0.4-0.2-0.6c0.9-1.5,1.9-2.9,2.9-4.3c0.2-0.2,0.4-0.3,0.6-0.1
		c0.2,0.2,0.3,0.4,0.1,0.6c-1,1.4-2,2.8-2.8,4.3C59.3,15.2,59.2,15.3,59,15.3z"/>
	<path class="st1" d="M173,20.4c-0.2,0-0.3-0.1-0.4-0.3c-1.3-2.8-2.9-5.6-4.6-8.2c-0.1-0.2-0.1-0.5,0.1-0.6c0.2-0.1,0.5-0.1,0.6,0.1
		c1.7,2.6,3.3,5.4,4.7,8.3c0.1,0.2,0,0.5-0.2,0.6C173.1,20.4,173,20.4,173,20.4z"/>
	<path class="st1" d="M176.8,30.8c-0.2,0-0.4-0.1-0.4-0.3c-0.2-0.7-0.4-1.3-0.6-2c-0.1-0.2,0.1-0.5,0.3-0.6c0.2-0.1,0.5,0.1,0.6,0.3
		c0.2,0.6,0.4,1.3,0.6,2c0.1,0.2-0.1,0.5-0.3,0.6C176.9,30.8,176.9,30.8,176.8,30.8z"/>
	<path class="st1" d="M56.4,15.3c-0.1,0-0.2,0-0.2-0.1c-0.2-0.1-0.3-0.4-0.2-0.6c0.9-1.5,1.8-2.9,2.8-4.3c0.1-0.2,0.4-0.3,0.6-0.1
		c0.2,0.1,0.3,0.4,0.1,0.6c-1,1.4-1.9,2.8-2.7,4.3C56.8,15.2,56.6,15.3,56.4,15.3z"/>
	<path class="st1" d="M53.9,15.3c-0.1,0-0.2,0-0.2-0.1c-0.2-0.1-0.3-0.4-0.2-0.6c0.8-1.5,1.7-2.9,2.6-4.3c0.1-0.2,0.4-0.3,0.6-0.1
		c0.2,0.1,0.3,0.4,0.1,0.6c-0.9,1.4-1.8,2.8-2.6,4.3C54.2,15.2,54.1,15.3,53.9,15.3z"/>
	<path class="st1" d="M179.1,30.8c-0.2,0-0.4-0.1-0.4-0.3c-0.8-2.9-1.7-5.7-2.9-8.4c-0.1-0.2,0-0.5,0.3-0.6c0.2-0.1,0.5,0,0.6,0.3
		c1.2,2.8,2.1,5.6,2.9,8.5c0.1,0.2-0.1,0.5-0.3,0.6C179.2,30.8,179.2,30.8,179.1,30.8z"/>
	<path class="st1" d="M52.5,13.2c-0.1,0-0.2,0-0.2-0.1c-0.2-0.1-0.3-0.4-0.2-0.6c0.4-0.7,0.9-1.5,1.3-2.2c0.1-0.2,0.4-0.3,0.6-0.1
		c0.2,0.1,0.3,0.4,0.1,0.6c-0.5,0.7-0.9,1.5-1.3,2.2C52.8,13.1,52.7,13.2,52.5,13.2z"/>
	<path class="st1" d="M45.3,30.8c0,0-0.1,0-0.1,0c-0.2-0.1-0.4-0.3-0.3-0.6c0.2-0.9,0.5-1.9,0.8-2.8c0.1-0.2,0.3-0.4,0.6-0.3
		c0.2,0.1,0.4,0.3,0.3,0.6c-0.3,0.9-0.5,1.9-0.8,2.8C45.7,30.7,45.5,30.8,45.3,30.8z"/>
	<path class="st1" d="M181.4,30.8c-0.2,0-0.4-0.1-0.4-0.3c-1.2-4.7-2.9-9.3-5.1-13.7c-0.1-0.2,0-0.5,0.2-0.6c0.2-0.1,0.5,0,0.6,0.2
		c2.2,4.4,4,9.1,5.2,13.8c0.1,0.2-0.1,0.5-0.3,0.6C181.5,30.8,181.4,30.8,181.4,30.8z"/>
	<path class="st1" d="M181.4,23.3c-0.2,0-0.4-0.1-0.4-0.3c-1.4-3.8-3.1-7.5-5.1-10.9c-0.1-0.2-0.1-0.5,0.2-0.6
		c0.2-0.1,0.5-0.1,0.6,0.2c2,3.5,3.8,7.3,5.2,11.1c0.1,0.2,0,0.5-0.3,0.6C181.5,23.3,181.4,23.3,181.4,23.3z"/>
	<path class="st1" d="M43,30.8c0,0-0.1,0-0.1,0c-0.2-0.1-0.4-0.3-0.3-0.6c0.8-3.2,1.8-6.4,3.1-9.5c0.1-0.2,0.4-0.4,0.6-0.3
		c0.2,0.1,0.4,0.4,0.3,0.6c-1.2,3.1-2.3,6.2-3,9.4C43.4,30.7,43.2,30.8,43,30.8z"/>
	<path class="st1" d="M48.9,15.3c-0.1,0-0.1,0-0.2-0.1c-0.2-0.1-0.3-0.4-0.2-0.6c0.5-0.9,1-1.9,1.5-2.8c0.1-0.2,0.4-0.3,0.6-0.2
		c0.2,0.1,0.3,0.4,0.2,0.6c-0.5,0.9-1,1.8-1.5,2.8C49.2,15.2,49,15.3,48.9,15.3z"/>
	<path class="st1" d="M185.7,29.8c-0.2,0-0.4-0.1-0.4-0.3c-0.1-0.6-0.3-1.2-0.5-1.7c-0.1-0.2,0.1-0.5,0.3-0.6
		c0.2-0.1,0.5,0.1,0.6,0.3c0.2,0.6,0.3,1.2,0.5,1.8c0.1,0.2-0.1,0.5-0.3,0.6C185.8,29.8,185.8,29.8,185.7,29.8z"/>
	<path class="st1" d="M40.9,30c0,0-0.1,0-0.1,0c-0.2-0.1-0.4-0.3-0.3-0.6c1.2-4.9,3-9.7,5.2-14.2c0.1-0.2,0.4-0.3,0.6-0.2
		c0.2,0.1,0.3,0.4,0.2,0.6c-2.2,4.5-3.9,9.2-5.1,14.1C41.3,29.9,41.1,30,40.9,30z"/>
	<path class="st1" d="M181.4,17.5c-0.2,0-0.3-0.1-0.4-0.3c-1-2.2-2.1-4.4-3.3-6.5c-0.1-0.2-0.1-0.5,0.2-0.6c0.2-0.1,0.5-0.1,0.6,0.2
		c1.2,2.1,2.4,4.3,3.4,6.5c0.1,0.2,0,0.5-0.2,0.6C181.5,17.5,181.5,17.5,181.4,17.5z"/>
	<path class="st1" d="M46.4,15.3c-0.1,0-0.1,0-0.2,0c-0.2-0.1-0.3-0.4-0.2-0.6c0.7-1.5,1.5-2.9,2.3-4.3c0.1-0.2,0.4-0.3,0.6-0.2
		c0.2,0.1,0.3,0.4,0.2,0.6c-0.8,1.4-1.6,2.8-2.3,4.3C46.7,15.2,46.5,15.3,46.4,15.3z"/>
	<path class="st1" d="M188.3,30.9c-0.2,0-0.4-0.1-0.5-0.4c-0.4-1.9-1-3.8-1.5-5.6c-0.1-0.2,0.1-0.5,0.3-0.6c0.2-0.1,0.5,0.1,0.6,0.3
		c0.6,1.9,1.1,3.8,1.6,5.7c0.1,0.2-0.1,0.5-0.3,0.6C188.3,30.9,188.3,30.9,188.3,30.9z"/>
	<path class="st1" d="M181.4,12.5c-0.2,0-0.3-0.1-0.4-0.2c-0.3-0.5-0.5-1-0.8-1.5c-0.1-0.2,0-0.5,0.2-0.6c0.2-0.1,0.5,0,0.6,0.2
		c0.3,0.5,0.5,1,0.8,1.5c0.1,0.2,0,0.5-0.2,0.6C181.5,12.5,181.5,12.5,181.4,12.5z"/>
	<path class="st1" d="M40.9,22.4c-0.1,0-0.1,0-0.2,0c-0.2-0.1-0.4-0.4-0.3-0.6c1.4-4,3.2-7.8,5.2-11.5c0.1-0.2,0.4-0.3,0.6-0.2
		c0.2,0.1,0.3,0.4,0.2,0.6c-2,3.6-3.8,7.4-5.2,11.4C41.3,22.3,41.1,22.4,40.9,22.4z"/>
	<path class="st1" d="M190.6,31.3c-0.2,0-0.4-0.1-0.5-0.4c-0.3-1.6-0.7-3.1-1.2-4.6c-0.1-0.2,0.1-0.5,0.3-0.6
		c0.2-0.1,0.5,0.1,0.6,0.3c0.4,1.5,0.8,3.1,1.2,4.7C191.2,31,191,31.3,190.6,31.3C190.7,31.3,190.7,31.3,190.6,31.3z"/>
	<path class="st1" d="M40.9,16.5c-0.1,0-0.1,0-0.2,0c-0.2-0.1-0.3-0.4-0.2-0.6c0.8-1.8,1.7-3.7,2.7-5.5c0.1-0.2,0.4-0.3,0.6-0.2
		c0.2,0.1,0.3,0.4,0.2,0.6c-0.9,1.8-1.8,3.6-2.6,5.4C41.3,16.4,41.1,16.5,40.9,16.5z"/>
	<path class="st1" d="M187.9,21.7c-0.2,0-0.4-0.1-0.4-0.3c-0.7-1.9-1.5-3.9-2.3-5.7c-0.1-0.2,0-0.5,0.2-0.6c0.2-0.1,0.5,0,0.6,0.2
		c0.9,1.9,1.6,3.8,2.3,5.8c0.1,0.2,0,0.5-0.3,0.6C188,21.7,187.9,21.7,187.9,21.7z"/>
	<path class="st1" d="M39,15.3c-0.1,0-0.1,0-0.2,0c-0.2-0.1-0.3-0.4-0.2-0.6c0.6-1.5,1.3-2.9,2.1-4.3c0.1-0.2,0.4-0.3,0.6-0.2
		c0.2,0.1,0.3,0.4,0.2,0.6c-0.7,1.4-1.4,2.8-2.1,4.3C39.4,15.2,39.2,15.3,39,15.3z"/>
	<path class="st1" d="M190.6,22.7c-0.2,0-0.4-0.1-0.4-0.3c-1.1-3.2-2.4-6.4-3.8-9.5c-0.1-0.2,0-0.5,0.2-0.6c0.2-0.1,0.5,0,0.6,0.2
		c1.5,3.1,2.8,6.3,3.9,9.6c0.1,0.2-0.1,0.5-0.3,0.6C190.7,22.7,190.6,22.7,190.6,22.7z"/>
	<path class="st1" d="M192.9,31.3c-0.2,0-0.4-0.1-0.5-0.4c-0.3-1.4-0.6-2.8-1-4.2c-0.1-0.2,0.1-0.5,0.3-0.6c0.2-0.1,0.5,0.1,0.6,0.3
		c0.4,1.4,0.7,2.8,1,4.3C193.4,31,193.3,31.2,192.9,31.3C193,31.3,192.9,31.3,192.9,31.3z"/>
	<path class="st1" d="M33.9,30.8c0,0-0.1,0-0.1,0c-0.2-0.1-0.4-0.3-0.4-0.6c0.2-0.7,0.3-1.5,0.5-2.3c0.1-0.2,0.3-0.4,0.6-0.3
		c0.2,0.1,0.4,0.3,0.3,0.6c-0.2,0.8-0.4,1.5-0.5,2.3C34.3,30.7,34.1,30.8,33.9,30.8z"/>
	<path class="st1" d="M31.6,30.8C31.6,30.8,31.6,30.8,31.6,30.8c-0.3-0.1-0.5-0.3-0.5-0.6c0.7-3.4,1.7-6.8,2.8-10.1
		c0.1-0.2,0.3-0.4,0.6-0.3c0.2,0.1,0.4,0.3,0.3,0.6c-1.1,3.2-2.1,6.6-2.8,10C32.1,30.7,31.9,30.8,31.6,30.8z"/>
	<path class="st1" d="M36.7,15c-0.1,0-0.1,0-0.2,0c-0.2-0.1-0.3-0.4-0.2-0.6c0.6-1.3,1.2-2.7,1.9-4c0.1-0.2,0.4-0.3,0.6-0.2
		c0.2,0.1,0.3,0.4,0.2,0.6c-0.7,1.3-1.3,2.6-1.8,3.9C37.1,14.9,36.9,15,36.7,15z"/>
	<path class="st1" d="M193.2,23.8c-0.2,0-0.4-0.1-0.4-0.3c-1.3-4.2-2.9-8.2-4.8-12.1c-0.1-0.2,0-0.5,0.2-0.6c0.2-0.1,0.5,0,0.6,0.2
		c1.9,4,3.6,8.1,4.9,12.3c0.1,0.2-0.1,0.5-0.3,0.6C193.3,23.8,193.3,23.8,193.2,23.8z"/>
	<path class="st1" d="M195.1,30.8c-0.2,0-0.4-0.1-0.5-0.4c-0.4-1.7-0.8-3.3-1.2-5c-0.1-0.2,0.1-0.5,0.3-0.6c0.2-0.1,0.5,0.1,0.6,0.3
		c0.5,1.7,0.9,3.3,1.2,5C195.6,30.5,195.4,30.7,195.1,30.8C195.1,30.8,195.1,30.8,195.1,30.8z"/>
	<path class="st1" d="M192.4,14.9c-0.2,0-0.4-0.1-0.4-0.3c-0.6-1.4-1.2-2.8-1.9-4.2c-0.1-0.2,0-0.5,0.2-0.6c0.2-0.1,0.5,0,0.6,0.2
		c0.7,1.4,1.3,2.8,1.9,4.2c0.1,0.2,0,0.5-0.2,0.6C192.5,14.9,192.4,14.9,192.4,14.9z"/>
	<path class="st1" d="M197.1,29.6c-0.2,0-0.4-0.1-0.5-0.4c-0.8-3.7-1.9-7.4-3.2-10.9c-0.1-0.2,0-0.5,0.3-0.6c0.2-0.1,0.5,0,0.6,0.3
		c1.3,3.6,2.4,7.3,3.3,11.1c0.1,0.2-0.1,0.5-0.4,0.6C197.1,29.6,197.1,29.6,197.1,29.6z"/>
	<path class="st1" d="M29.4,30.8C29.3,30.8,29.3,30.8,29.4,30.8c-0.3-0.1-0.5-0.3-0.5-0.6c1.2-5.6,2.9-11,5.1-16.2
		c0.1-0.2,0.4-0.3,0.6-0.2c0.2,0.1,0.3,0.4,0.2,0.6c-2.2,5.2-3.9,10.6-5,16C29.8,30.7,29.6,30.8,29.4,30.8z"/>
	<path class="st1" d="M194.9,15.2c-0.2,0-0.4-0.1-0.4-0.3c-0.6-1.6-1.3-3.1-2.1-4.7c-0.1-0.2,0-0.5,0.2-0.6c0.2-0.1,0.5,0,0.6,0.2
		c0.7,1.5,1.4,3.1,2.1,4.7c0.1,0.2,0,0.5-0.3,0.6C195,15.2,195,15.2,194.9,15.2z"/>
	<path class="st1" d="M29.3,22.3c0,0-0.1,0-0.1,0c-0.2-0.1-0.4-0.3-0.3-0.6c1.2-3.9,2.7-7.7,4.4-11.3c0.1-0.2,0.4-0.3,0.6-0.2
		c0.2,0.1,0.3,0.4,0.2,0.6c-1.7,3.6-3.2,7.4-4.4,11.2C29.7,22.2,29.5,22.3,29.3,22.3z"/>
	<path class="st1" d="M198.8,27.2c-0.2,0-0.4-0.1-0.4-0.4c-0.6-2.5-1.4-5.1-2.2-7.5c-0.1-0.2,0-0.5,0.3-0.6c0.2-0.1,0.5,0,0.6,0.3
		c0.9,2.5,1.6,5.1,2.2,7.6c0.1,0.2-0.1,0.5-0.3,0.6C198.9,27.2,198.8,27.2,198.8,27.2z"/>
	<path class="st1" d="M197.1,14.8c-0.2,0-0.4-0.1-0.4-0.3c-0.5-1.3-1.1-2.6-1.6-3.8c-0.1-0.2,0-0.5,0.2-0.6c0.2-0.1,0.5,0,0.6,0.2
		c0.6,1.3,1.1,2.6,1.7,3.9c0.1,0.2,0,0.5-0.3,0.6C197.2,14.8,197.2,14.8,197.1,14.8z"/>
	<path class="st1" d="M29.3,15.6c-0.1,0-0.1,0-0.2,0c-0.2-0.1-0.4-0.4-0.3-0.6c0.6-1.5,1.3-3.1,1.9-4.6c0.1-0.2,0.4-0.3,0.6-0.2
		c0.2,0.1,0.3,0.4,0.2,0.6c-0.7,1.5-1.3,3-1.9,4.5C29.7,15.5,29.5,15.6,29.3,15.6z"/>
	<path class="st1" d="M24.9,30.8C24.8,30.8,24.8,30.8,24.9,30.8c-0.3-0.1-0.5-0.3-0.5-0.6c0.1-0.5,0.2-1,0.3-1.4
		c0.1-0.3,0.3-0.4,0.5-0.4c0.3,0.1,0.4,0.3,0.4,0.5c-0.1,0.5-0.2,0.9-0.3,1.4C25.3,30.7,25.1,30.8,24.9,30.8z"/>
	<path class="st1" d="M204.1,30.8c-0.2,0-0.4-0.2-0.5-0.4c-0.4-2.3-1-4.6-1.6-6.8c-0.1-0.2,0.1-0.5,0.3-0.6c0.2-0.1,0.5,0.1,0.6,0.3
		c0.6,2.3,1.2,4.6,1.6,6.9C204.6,30.5,204.5,30.8,204.1,30.8C204.2,30.8,204.2,30.8,204.1,30.8z"/>
	<path class="st1" d="M22.6,30.8C22.6,30.8,22.5,30.8,22.6,30.8c-0.3-0.1-0.5-0.3-0.5-0.6c0.7-3.4,1.5-6.8,2.6-10.2
		c0.1-0.2,0.3-0.4,0.6-0.3c0.2,0.1,0.4,0.3,0.3,0.6c-1,3.3-1.9,6.7-2.5,10.1C23,30.7,22.8,30.8,22.6,30.8z"/>
	<path class="st1" d="M206.4,30.8c-0.2,0-0.4-0.2-0.5-0.4c-0.9-4.8-2.2-9.6-3.8-14.1c-0.1-0.2,0-0.5,0.3-0.6c0.2-0.1,0.5,0,0.6,0.3
		c1.7,4.6,3,9.4,3.9,14.3C206.9,30.5,206.7,30.8,206.4,30.8C206.4,30.8,206.4,30.8,206.4,30.8z"/>
	<path class="st1" d="M20.3,30.8C20.3,30.8,20.3,30.8,20.3,30.8c-0.3-0.1-0.5-0.3-0.5-0.5c1.1-5.8,2.7-11.4,4.8-16.9
		c0.1-0.2,0.4-0.4,0.6-0.3c0.2,0.1,0.4,0.4,0.3,0.6c-2.1,5.4-3.7,11-4.8,16.7C20.7,30.7,20.6,30.8,20.3,30.8z"/>
	<path class="st1" d="M18.5,28.9C18.4,28.9,18.4,28.9,18.5,28.9c-0.3-0.1-0.5-0.3-0.5-0.6c0.4-2,0.9-4,1.4-5.9
		c0.1-0.2,0.3-0.4,0.6-0.3c0.2,0.1,0.4,0.3,0.3,0.6c-0.5,1.9-1,3.9-1.4,5.9C18.9,28.7,18.7,28.9,18.5,28.9z"/>
	<path class="st1" d="M208.6,30.8c-0.2,0-0.4-0.2-0.5-0.4c-0.3-1.4-0.6-2.9-0.9-4.3c-0.1-0.2,0.1-0.5,0.3-0.6
		c0.2-0.1,0.5,0.1,0.6,0.3c0.3,1.4,0.6,2.9,0.9,4.3C209.1,30.5,209,30.8,208.6,30.8C208.7,30.8,208.7,30.8,208.6,30.8z"/>
	<path class="st1" d="M207.7,26.3c-0.2,0-0.4-0.1-0.5-0.4c-1.2-5.2-2.9-10.3-4.9-15.2c-0.1-0.2,0-0.5,0.2-0.6c0.2-0.1,0.5,0,0.6,0.2
		c2.1,5,3.7,10.1,5,15.4c0.1,0.2-0.1,0.5-0.3,0.6C207.8,26.3,207.7,26.3,207.7,26.3z"/>
	<path class="st1" d="M20,22.5c0,0-0.1,0-0.1,0c-0.2-0.1-0.4-0.3-0.3-0.6c1.1-3.9,2.4-7.8,4-11.5c0.1-0.2,0.4-0.3,0.6-0.2
		c0.2,0.1,0.3,0.4,0.2,0.6c-1.6,3.7-2.9,7.6-4,11.4C20.4,22.4,20.2,22.5,20,22.5z"/>
	<path class="st1" d="M20,15.1c-0.1,0-0.1,0-0.2,0c-0.2-0.1-0.4-0.4-0.3-0.6c0.5-1.4,1-2.8,1.6-4.2c0.1-0.2,0.4-0.4,0.6-0.3
		c0.2,0.1,0.4,0.4,0.3,0.6c-0.5,1.3-1.1,2.7-1.6,4.1C20.4,15,20.2,15.1,20,15.1z"/>
	<path class="st1" d="M16.7,26.6c0,0-0.1,0-0.1,0c-0.2-0.1-0.4-0.3-0.4-0.6c0.4-1.9,0.9-3.9,1.5-5.8c0.1-0.2,0.3-0.4,0.6-0.3
		c0.2,0.1,0.4,0.3,0.3,0.6c-0.5,1.9-1,3.8-1.5,5.8C17.1,26.4,16.9,26.6,16.7,26.6z"/>
	<path class="st1" d="M209.2,23c-0.2,0-0.4-0.1-0.4-0.3c-0.4-1.4-0.8-2.9-1.2-4.3c-0.1-0.2,0.1-0.5,0.3-0.6c0.2-0.1,0.5,0.1,0.6,0.3
		c0.4,1.4,0.9,2.9,1.2,4.3c0.1,0.2-0.1,0.5-0.3,0.6C209.2,23,209.2,23,209.2,23z"/>
	<path class="st1" d="M210.9,30.8c-0.2,0-0.4-0.2-0.5-0.4c-0.3-1.4-0.5-2.8-0.9-4.3c-0.1-0.2,0.1-0.5,0.3-0.6
		c0.3-0.1,0.5,0.1,0.6,0.3c0.3,1.4,0.6,2.9,0.9,4.3C211.4,30.5,211.2,30.8,210.9,30.8C210.9,30.8,210.9,30.8,210.9,30.8z"/>
	<path class="st1" d="M207.7,18c-0.2,0-0.4-0.1-0.4-0.3c-0.8-2.3-1.6-4.7-2.5-7c-0.1-0.2,0-0.5,0.3-0.6c0.2-0.1,0.5,0,0.6,0.3
		c0.9,2.3,1.8,4.7,2.6,7c0.1,0.2-0.1,0.5-0.3,0.6C207.8,18,207.7,18,207.7,18z"/>
	<path class="st1" d="M14.9,24.3c0,0-0.1,0-0.1,0c-0.2-0.1-0.4-0.3-0.3-0.6c0.5-1.9,1-3.8,1.6-5.7c0.1-0.2,0.3-0.4,0.6-0.3
		c0.2,0.1,0.4,0.3,0.3,0.6c-0.6,1.9-1.1,3.8-1.6,5.7C15.3,24.2,15.1,24.3,14.9,24.3z"/>
	<path class="st1" d="M211.5,23c-0.2,0-0.4-0.1-0.4-0.3c-0.4-1.4-0.8-2.9-1.2-4.3c-0.1-0.2,0.1-0.5,0.3-0.6c0.2-0.1,0.5,0.1,0.6,0.3
		c0.4,1.4,0.9,2.9,1.2,4.3c0.1,0.2-0.1,0.5-0.3,0.6C211.5,23,211.5,23,211.5,23z"/>
	<path class="st1" d="M213.1,30.8c-0.2,0-0.4-0.2-0.5-0.4c-0.3-1.4-0.5-2.9-0.8-4.3c-0.1-0.2,0.1-0.5,0.4-0.6
		c0.2-0.1,0.5,0.1,0.6,0.4c0.3,1.4,0.6,2.9,0.9,4.3C213.6,30.5,213.5,30.8,213.1,30.8C213.2,30.8,213.2,30.8,213.1,30.8z"/>
	<path class="st1" d="M209.1,15.3c-0.2,0-0.4-0.1-0.4-0.3c-0.5-1.4-1-2.9-1.6-4.3c-0.1-0.2,0-0.5,0.3-0.6c0.2-0.1,0.5,0,0.6,0.3
		c0.6,1.4,1.1,2.9,1.6,4.3c0.1,0.2,0,0.5-0.3,0.6C209.2,15.3,209.2,15.3,209.1,15.3z"/>
	<path class="st1" d="M13.2,22.1c0,0-0.1,0-0.1,0c-0.2-0.1-0.4-0.3-0.3-0.6c0.5-1.9,1-3.8,1.6-5.6c0.1-0.2,0.3-0.4,0.6-0.3
		c0.2,0.1,0.4,0.3,0.3,0.6c-0.6,1.8-1.1,3.7-1.6,5.6C13.6,22,13.4,22.1,13.2,22.1z"/>
	<path class="st1" d="M213.5,22c-0.2,0-0.4-0.1-0.4-0.3c-0.3-1.1-0.6-2.2-0.9-3.3c-0.1-0.2,0.1-0.5,0.3-0.6c0.2-0.1,0.5,0.1,0.6,0.3
		c0.3,1.1,0.6,2.2,0.9,3.3c0.1,0.2-0.1,0.5-0.3,0.6C213.6,22,213.5,22,213.5,22z"/>
	<path class="st1" d="M211.5,15.3c-0.2,0-0.4-0.1-0.4-0.3c-0.5-1.4-1-2.9-1.6-4.3c-0.1-0.2,0-0.5,0.3-0.6c0.2-0.1,0.5,0,0.6,0.3
		c0.6,1.4,1.1,2.9,1.6,4.3c0.1,0.2,0,0.5-0.3,0.6C211.6,15.3,211.5,15.3,211.5,15.3z"/>
	<path class="st1" d="M213.8,15.3c-0.2,0-0.4-0.1-0.4-0.3c-0.5-1.4-1-2.9-1.5-4.3c-0.1-0.2,0-0.5,0.3-0.6c0.2-0.1,0.5,0,0.6,0.3
		c0.5,1.4,1,2.9,1.5,4.3c0.1,0.2-0.1,0.5-0.3,0.6C213.9,15.3,213.9,15.3,213.8,15.3z"/>
	<path class="st1" d="M9.1,30.8C9,30.8,9,30.8,9.1,30.8c-0.3,0-0.5-0.3-0.5-0.5c0.4-2.4,0.9-4.8,1.4-7.1c0.1-0.2,0.3-0.4,0.6-0.3
		c0.2,0.1,0.4,0.3,0.3,0.6c-0.6,2.3-1,4.7-1.4,7.1C9.5,30.7,9.3,30.8,9.1,30.8z"/>
	<path class="st1" d="M11.5,20c0,0-0.1,0-0.1,0c-0.2-0.1-0.4-0.3-0.3-0.6c0.5-1.9,1.1-3.7,1.7-5.5c0.1-0.2,0.3-0.4,0.6-0.3
		c0.2,0.1,0.4,0.3,0.3,0.6c-0.6,1.8-1.2,3.6-1.7,5.5C11.9,19.8,11.7,20,11.5,20z"/>
	<path class="st1" d="M6.8,30.8C6.8,30.8,6.8,30.8,6.8,30.8c-0.3,0-0.5-0.3-0.5-0.5c1-6.3,2.6-12.5,4.8-18.6
		c0.1-0.2,0.4-0.4,0.6-0.3c0.2,0.1,0.4,0.4,0.3,0.6c-2.1,6-3.7,12.1-4.7,18.4C7.2,30.7,7,30.8,6.8,30.8z"/>
	<path class="st1" d="M5.4,26.5C5.3,26.5,5.3,26.5,5.4,26.5C5,26.5,4.9,26.2,4.9,26C6,20.7,7.4,15.5,9.3,10.4
		c0.1-0.2,0.4-0.4,0.6-0.3c0.2,0.1,0.4,0.4,0.3,0.6c-1.8,5-3.3,10.2-4.3,15.5C5.8,26.4,5.6,26.5,5.4,26.5z"/>
	<path class="st1" d="M5.4,17.2c0,0-0.1,0-0.1,0c-0.2-0.1-0.4-0.3-0.3-0.6c0.6-2.1,1.3-4.2,2-6.2C7,10.2,7.2,10,7.5,10.1
		c0.2,0.1,0.4,0.3,0.3,0.6c-0.7,2-1.4,4.1-2,6.2C5.7,17.1,5.6,17.2,5.4,17.2z"/>
</g>
</svg>
